<?xml version="1.0" encoding="iso-8859-1"?>
<!-- Generator: Adobe Illustrator 18.0.0, SVG Export Plug-In . SVG Version: 6.00 Build 0)  -->
<!DOCTYPE svg PUBLIC "-//W3C//DTD SVG 1.1//EN" "http://www.w3.org/Graphics/SVG/1.1/DTD/svg11.dtd">
<svg version="1.1" id="Capa_1" xmlns="http://www.w3.org/2000/svg" xmlns:xlink="http://www.w3.org/1999/xlink" x="0px" y="0px"
	 viewBox="0 0 297 297" style="enable-background:new 0 0 297 297;" xml:space="preserve">
<g>
	<path d="M148.501,92.659c-24.647,0-44.701,20.052-44.704,44.702c0,24.648,20.053,44.702,44.702,44.702
		c24.647,0,44.701-20.052,44.704-44.702C193.203,112.712,173.149,92.659,148.501,92.659z M148.499,161.858
		c-13.508,0-24.497-10.99-24.497-24.496c0.001-13.509,10.992-24.498,24.499-24.498c13.508,0,24.497,10.99,24.497,24.496
		C172.997,150.868,162.007,161.858,148.499,161.858z"/>
	<path d="M148.499,205.106c-5.579,0-10.102,4.523-10.102,10.102v34.599c0,5.579,4.523,10.102,10.102,10.102
		s10.102-4.523,10.102-10.102v-34.599C158.601,209.63,154.078,205.106,148.499,205.106z"/>
	<path d="M286.898,5.461H10.102C4.523,5.461,0,9.984,0,15.563v138.398c0,5.579,4.523,10.102,10.102,10.102H68.5v117.374
		c0,5.579,4.523,10.102,10.102,10.102h139.797c5.579,0,10.102-4.523,10.102-10.102V164.063h58.397
		c5.579,0,10.102-4.523,10.102-10.102V15.563C297,9.984,292.477,5.461,286.898,5.461z M276.796,109.259H228.5V25.665h48.295V109.259
		z M113.455,271.335l-24.751-24.751V25.665h49.695v33.847c0,5.579,4.523,10.102,10.102,10.102s10.102-4.523,10.102-10.102V25.665
		h49.693v220.917l-24.753,24.753H113.455z M68.5,25.665v83.594H20.204V25.665H68.5z M20.204,143.859v-14.395H68.5v14.395H20.204z
		 M228.5,143.859v-14.395h48.295v14.395H228.5z"/>
</g>
<g>
</g>
<g>
</g>
<g>
</g>
<g>
</g>
<g>
</g>
<g>
</g>
<g>
</g>
<g>
</g>
<g>
</g>
<g>
</g>
<g>
</g>
<g>
</g>
<g>
</g>
<g>
</g>
<g>
</g>
</svg>
