<?xml version="1.0" standalone="no"?><!DOCTYPE svg PUBLIC "-//W3C//DTD SVG 1.1//EN" "http://www.w3.org/Graphics/SVG/1.1/DTD/svg11.dtd"><svg t="1639014068855" class="icon" viewBox="0 0 1024 1024" version="1.1" xmlns="http://www.w3.org/2000/svg" p-id="1315" xmlns:xlink="http://www.w3.org/1999/xlink" width="100" height="100"><defs><style type="text/css"></style></defs><path d="M820.705882 338.823529h-617.411764c-12.047059 0-22.588235-10.541176-22.588236-22.588235s10.541176-22.588235 22.588236-22.588235h617.411764c12.047059 0 22.588235 10.541176 22.588236 22.588235s-10.541176 22.588235-22.588236 22.588235z" p-id="1316"></path><path d="M956.235294 323.764706L886.964706 146.070588c-1.505882-10.541176-10.541176-18.070588-22.588235-18.070588H159.623529c-12.047059 0-21.082353 9.035294-22.588235 21.082353L67.764706 323.764706c-4.517647 12.047059 1.505882 24.094118 13.552941 28.611765 12.047059 4.517647 24.094118-1.505882 28.611765-13.552942l66.258823-168.658823h673.129412l66.258824 168.658823c4.517647 12.047059 18.070588 18.070588 28.611764 13.552942 10.541176-3.011765 16.564706-16.564706 12.047059-28.611765zM905.035294 367.435294c-12.047059-1.505882-22.588235 9.035294-24.094118 21.082353-3.011765 46.682353-42.164706 55.717647-49.694117 55.717647-57.223529 0-61.741176-48.188235-61.741177-58.729412 0-12.047059-10.541176-22.588235-22.588235-22.588235-9.035294 0-18.070588 6.023529-21.082353 15.058824-1.505882 3.011765-3.011765 6.023529-3.011765 9.035294-3.011765 37.647059-28.611765 51.2-42.164705 54.211764-3.011765 1.505882-6.023529 1.505882-7.529412 1.505883-52.705882-1.505882-60.235294-51.2-60.235294-57.22353 0-3.011765-1.505882-6.023529-3.011765-9.035294-3.011765-7.529412-12.047059-13.552941-21.082353-13.552941-12.047059 0-22.588235 10.541176-22.588235 22.588235 0 48.188235-42.164706 57.223529-51.2 58.729412h-9.035294-1.505883c-12.047059-1.505882-21.082353-7.529412-28.611764-13.552941-16.564706-15.058824-18.070588-37.647059-18.070589-43.670588 0-12.047059-9.035294-21.082353-21.082353-22.588236-7.529412 0-15.058824 3.011765-19.57647 9.035295-4.517647 4.517647-7.529412 9.035294-7.529412 16.564705-1.505882 45.176471-43.670588 54.211765-52.705882 55.717647-13.552941 0-22.588235-3.011765-30.117647-7.529411-21.082353-15.058824-27.105882-51.2-27.105883-52.705883 0-1.505882-1.505882-4.517647-1.505882-6.023529-1.505882-3.011765-3.011765-4.517647-4.517647-6.023529-1.505882-1.505882-4.517647-3.011765-6.02353-4.517648-3.011765-1.505882-4.517647-1.505882-7.529411-1.505882-9.035294 0-18.070588 4.517647-21.082353 12.047059 0 1.505882-1.505882 3.011765-1.505883 3.011765v3.011764c-10.541176 63.247059-54.211765 61.741176-63.247058 61.741177h-1.505883c-40.658824-1.505882-48.188235-57.223529-48.188235-60.235294-1.505882-12.047059-12.047059-21.082353-25.6-19.576471-13.552941-1.505882-22.588235 9.035294-21.082353 22.588235 4.517647 33.129412 28.611765 96.376471 90.352941 100.894118h7.529412c24.094118 0 57.223529-9.035294 79.811765-39.152941 7.529412 10.541176 16.564706 19.576471 28.611764 25.6 1.505882 0 1.505882 1.505882 3.011765 1.505882 10.541176 6.023529 22.588235 10.541176 37.647059 10.541177H362.917647c22.588235-1.505882 51.2-12.047059 70.776471-39.152941 1.505882 3.011765 4.517647 6.023529 7.529411 7.529411 15.058824 16.564706 36.141176 28.611765 67.764706 30.117647h12.047059c19.576471-3.011765 49.694118-13.552941 69.270588-37.647058 16.564706 21.082353 43.670588 37.647059 84.329412 37.647058h1.505882c1.505882 0 4.517647 0 6.02353-1.505882h1.505882c1.505882 0 3.011765 0 4.517647-1.505882 1.505882 0 3.011765-1.505882 4.517647-1.505883h1.505883c16.564706-6.023529 36.141176-15.058824 51.2-33.129411 16.564706 21.082353 43.670588 37.647059 85.835294 37.647058h1.505882c30.117647-3.011765 85.835294-27.105882 90.352941-97.882353 4.517647-10.541176-4.517647-22.588235-18.070588-22.588235zM865.882353 539.105882v45.176471c0 12.047059-10.541176 22.588235-22.588235 22.588235s-22.588235-10.541176-22.588236-22.588235v-45.176471c0-12.047059 10.541176-22.588235 22.588236-22.588235s22.588235 9.035294 22.588235 22.588235zM525.552941 810.164706h-331.294117v-271.058824c0-12.047059-10.541176-22.588235-22.588236-22.588235s-22.588235 10.541176-22.588235 22.588235v293.647059c0 12.047059 10.541176 22.588235 22.588235 22.588235h353.882353c12.047059 0 22.588235-10.541176 22.588235-22.588235s-10.541176-22.588235-22.588235-22.588235zM716.8 599.341176c-84.329412 0-149.082353 64.752941-149.082353 149.082353 0 81.317647 67.764706 149.082353 149.082353 149.082353 84.329412 0 149.082353-64.752941 149.082353-149.082353 0-84.329412-66.258824-149.082353-149.082353-149.082353z m-1.505882 239.435295c-6.023529 6.023529-21.082353 6.023529-28.611765 0l-64.752941-64.752942c-6.023529-6.023529-6.023529-21.082353 0-25.6 6.023529-6.023529 21.082353-6.023529 28.611764 0l49.694118 49.694118 96.376471-93.364706c6.023529-6.023529 21.082353-6.023529 28.611764 0 6.023529 6.023529 6.023529 21.082353 0 25.6l-109.929411 108.42353z m0 0" p-id="1317"></path></svg>
