<?xml version="1.0" standalone="no"?><!DOCTYPE svg PUBLIC "-//W3C//DTD SVG 1.1//EN" "http://www.w3.org/Graphics/SVG/1.1/DTD/svg11.dtd"><svg t="1638866971364" class="icon" viewBox="0 0 1024 1024" version="1.1" xmlns="http://www.w3.org/2000/svg" p-id="2338" xmlns:xlink="http://www.w3.org/1999/xlink" width="100" height="100"><defs><style type="text/css"></style></defs><path d="M331.84 203.2a336.32 336.32 0 0 1 260.48-35.52 344.32 344.32 0 0 1 205.76 154.88l-68.16 32 161.6 96 35.2-192-70.4 33.6A408.64 408.64 0 0 0 608 105.6a402.56 402.56 0 0 0-308.8 42.24 417.92 417.92 0 0 0-179.52 216.96l60.16 21.76a352 352 0 0 1 152-183.36zM664 838.4a338.24 338.24 0 0 1-262.08 21.44 344.96 344.96 0 0 1-199.36-169.92L288 648.96l-168.96-85.44-55.04 192 79.68-38.08a408.64 408.64 0 0 0 363.2 224A403.2 403.2 0 0 0 693.12 896a411.84 411.84 0 0 0 207.36-253.12l-61.44-17.92a347.52 347.52 0 0 1-175.04 213.44z" p-id="2339"></path><path d="M548.16 761.28v-46.4c64-9.6 106.24-45.44 106.24-110.4s-32-96-119.36-120c-62.08-17.6-75.84-28.8-75.84-53.76 0-17.92 10.56-39.68 48-39.68a49.28 49.28 0 0 1 56 41.92h82.24A107.2 107.2 0 0 0 544 333.12V296h-69.44v37.76a108.16 108.16 0 0 0-98.24 104.64c0 54.4 28.8 90.24 128 118.08 53.76 15.36 68.8 29.12 68.8 57.28 0 23.04-13.76 43.52-56.64 43.52a61.12 61.12 0 0 1-64-48.32h-83.84A116.48 116.48 0 0 0 480 715.2v46.08z" p-id="2340"></path></svg>
